<?xml version="1.0" encoding="UTF-8" standalone="no"?>
<svg
   xmlns:dc="http://purl.org/dc/elements/1.1/"
   xmlns:cc="http://creativecommons.org/ns#"
   xmlns:rdf="http://www.w3.org/1999/02/22-rdf-syntax-ns#"
   xmlns:svg="http://www.w3.org/2000/svg"
   xmlns="http://www.w3.org/2000/svg"
   xmlns:xlink="http://www.w3.org/1999/xlink"
   xmlns:sodipodi="http://sodipodi.sourceforge.net/DTD/sodipodi-0.dtd"
   xmlns:inkscape="http://www.inkscape.org/namespaces/inkscape"
   id="svg865"
   viewBox="0 0 24 24"
   height="512"
   width="512"
   version="1.1"
   sodipodi:docname="chat.svg"
   inkscape:version="0.92.3 (2405546, 2018-03-11)">
  <sodipodi:namedview
     pagecolor="#ffffff"
     bordercolor="#666666"
     borderopacity="1"
     objecttolerance="10"
     gridtolerance="10"
     guidetolerance="10"
     inkscape:pageopacity="0"
     inkscape:pageshadow="2"
     inkscape:window-width="1366"
     inkscape:window-height="693"
     id="namedview2616"
     showgrid="false"
     inkscape:zoom="1.3037281"
     inkscape:cx="190.56381"
     inkscape:cy="332.50451"
     inkscape:window-x="0"
     inkscape:window-y="0"
     inkscape:window-maximized="1"
     inkscape:current-layer="g3412" />
  <metadata
     id="metadata871">
    <rdf:RDF>
      <cc:Work
         rdf:about="">
        <dc:format>image/svg+xml</dc:format>
        <dc:type
           rdf:resource="http://purl.org/dc/dcmitype/StillImage" />
        <dc:title />
      </cc:Work>
    </rdf:RDF>
  </metadata>
  <defs
     id="defs869">
    <linearGradient
       id="linearGradient2552">
      <stop
         style="stop-color:#4caf50;stop-opacity:1"
         offset="0"
         id="stop2548" />
      <stop
         style="stop-color:#ffffff;stop-opacity:0"
         offset="1"
         id="stop2550" />
    </linearGradient>
    <linearGradient
       id="linearGradient2522">
      <stop
         id="stop2518"
         offset="0"
         style="stop-color:#1e88e5;stop-opacity:1" />
      <stop
         id="stop2520"
         offset="1"
         style="stop-color:#ffffff;stop-opacity:0" />
    </linearGradient>
    <linearGradient
       id="linearGradient2492">
      <stop
         style="stop-color:#9575cd;stop-opacity:1"
         offset="0"
         id="stop2488" />
      <stop
         style="stop-color:#ffffff;stop-opacity:0"
         offset="1"
         id="stop2490" />
    </linearGradient>
    <linearGradient
       id="linearGradient976">
      <stop
         id="stop972"
         offset="0"
         style="stop-color:#03a9f4;stop-opacity:1" />
      <stop
         id="stop974"
         offset="1"
         style="stop-color:#ffffff;stop-opacity:0" />
    </linearGradient>
    <radialGradient
       gradientTransform="matrix(19.024315,-19.024315,15.084704,15.085185,-305.88043,188.75473)"
       gradientUnits="userSpaceOnUse"
       r="10"
       fy="20.752941"
       fx="3.1058824"
       cy="20.752941"
       cx="3.1058824"
       id="radialGradient978"
       xlink:href="#linearGradient976" />
    <radialGradient
       gradientTransform="matrix(-13.367189,-23.152651,18.475378,-10.666374,-50.983383,950.31347)"
       gradientUnits="userSpaceOnUse"
       r="10"
       fy="33.503387"
       fx="7.268929"
       cy="33.503387"
       cx="7.268929"
       id="radialGradient978-5"
       xlink:href="#linearGradient2492" />
    <radialGradient
       gradientTransform="matrix(22.318391,5.980195,-5.5217555,20.606342,-222.19979,-554.21246)"
       gradientUnits="userSpaceOnUse"
       r="10"
       fy="25.063934"
       fx="18.90082"
       cy="25.063934"
       cx="18.90082"
       id="radialGradient978-5-2"
       xlink:href="#linearGradient2522" />
    <radialGradient
       gradientTransform="matrix(1.2162905e-4,2.106204,-2.1670589,-6.7597437e-8,61.124842,-58.481775)"
       gradientUnits="userSpaceOnUse"
       r="10"
       fy="21.4979"
       fx="29.174042"
       cy="21.4979"
       cx="29.174042"
       id="radialGradient978-5-2-7"
       xlink:href="#linearGradient2552" />
    <radialGradient
       inkscape:collect="always"
       xlink:href="#linearGradient2552"
       id="radialGradient3519"
       gradientUnits="userSpaceOnUse"
       gradientTransform="matrix(0.00259475,44.932352,-46.23059,-1.4420787e-6,1303.9966,-1247.6112)"
       cx="29.174042"
       cy="21.4979"
       fx="29.174042"
       fy="21.4979"
       r="10" />
    <radialGradient
       gradientTransform="matrix(0.89176478,-0.89176478,0.70709549,0.70711807,-14.338145,8.847878)"
       gradientUnits="userSpaceOnUse"
       r="10"
       fy="20.752941"
       fx="3.1058824"
       cy="20.752941"
       cx="3.1058824"
       id="radialGradient978-3"
       xlink:href="#linearGradient976" />
    <radialGradient
       gradientTransform="matrix(-0.626587,-1.0852805,0.86603334,-0.49998626,-2.3898461,44.545944)"
       gradientUnits="userSpaceOnUse"
       r="10"
       fy="33.503387"
       fx="7.268929"
       cy="33.503387"
       cx="7.268929"
       id="radialGradient978-5-4"
       xlink:href="#linearGradient2492" />
    <radialGradient
       gradientTransform="matrix(1.0461746,0.28032164,-0.25883229,0.96592228,-10.415615,-25.978709)"
       gradientUnits="userSpaceOnUse"
       r="10"
       fy="25.063934"
       fx="18.90082"
       cy="25.063934"
       cx="18.90082"
       id="radialGradient978-5-2-4"
       xlink:href="#linearGradient2522" />
    <clipPath
       clipPathUnits="userSpaceOnUse"
       id="clipPath3364-3">
      <g
         inkscape:label="Clip"
         id="use3366-6">
        <path
           sodipodi:nodetypes="ssccssssssssssssssscccssccssc"
           inkscape:connector-curvature="0"
           d="m 3.0000002,2 c -0.5522847,0 -1,0.4477153 -1,1 v 14 l 4,-4 H 16 c 0.552285,0 1,-0.447715 1,-1 V 3 C 17,2.4477153 16.552285,2 16,2 Z M 9.552734,5.8125 c 0.922641,0 1.669922,0.7472815 1.669922,1.6699219 0,0.9226404 -0.747281,1.6699218 -1.669922,1.6699219 -0.92264,10e-8 -1.6699213,-0.7472814 -1.6699213,-1.6699219 0,-0.9226405 0.7472813,-1.669922 1.6699213,-1.6699219 z m 5.011719,0 c 0.92264,0 1.669922,0.7472815 1.669922,1.6699219 0,0.9226404 -0.747282,1.6699219 -1.669922,1.6699219 -0.922641,0 -1.669922,-0.7472815 -1.669922,-1.6699219 0,-0.9226404 0.747281,-1.6699219 1.669922,-1.6699219 z M 19,6 v 9 H 6.0000002 v 2 c 0,0.552285 0.4477153,1 1,1 H 18 l 4,4 V 7 C 22,6.4477153 21.552285,6 21,6 Z"
           id="path3631"
           style="fill:url(#radialGradient3635);fill-opacity:1" />
      </g>
    </clipPath>
    <radialGradient
       gradientTransform="matrix(1.2162905e-4,2.106204,-2.1670589,-6.7597437e-8,61.124842,-58.481775)"
       gradientUnits="userSpaceOnUse"
       r="10"
       fy="21.4979"
       fx="29.174042"
       cy="21.4979"
       cx="29.174042"
       id="radialGradient978-5-2-7-1"
       xlink:href="#linearGradient2552" />
    <radialGradient
       inkscape:collect="always"
       xlink:href="#linearGradient2552"
       id="radialGradient3635"
       gradientUnits="userSpaceOnUse"
       gradientTransform="matrix(1.2162905e-4,2.106204,-2.1670589,-6.7597437e-8,61.124842,-58.481775)"
       cx="29.174042"
       cy="21.4979"
       fx="29.174042"
       fy="21.4979"
       r="10" />
  </defs>
  <g
     id="g3412">
    <path
       style="fill:#4dd0e1;fill-opacity:1;stroke-width:21.33333397"
       d="M 64,42.666016 C 52.217926,42.666016 42.666016,52.217926 42.666016,64 V 362.66602 L 128,277.33398 h 213.33398 c 11.78208,0 21.33204,-9.5519 21.33204,-21.33398 V 64 c 0,-11.782074 -9.54996,-21.333984 -21.33204,-21.333984 z m 1.8125,49.6875 H 91.132812 L 103.79102,124 116.44922,92.353516 h 25.3164 l -25.3164,63.292964 25.31445,63.29493 H 116.44531 L 103.78906,187.29492 91.130859,218.94141 H 65.8125 L 91.130859,155.64648 Z M 203.79102,124 c 19.683,0 35.625,15.942 35.625,35.625 0,19.683 -15.942,35.625 -35.625,35.625 -19.68301,0 -35.625,-15.942 -35.625,-35.625 0,-19.683 15.94199,-35.625 35.625,-35.625 z m 106.91796,0 c 19.68299,0 35.625,15.942 35.625,35.625 0,19.683 -15.94201,35.625 -35.625,35.625 -19.683,0 -35.625,-15.942 -35.625,-35.625 0,-19.683 15.942,-35.625 35.625,-35.625 z m 94.625,4 V 320 H 128 v 42.66602 C 128,374.4481 137.55191,384 149.33398,384 H 384 l 85.33398,85.33398 v -320 C 469.33398,137.55191 459.78208,128 448,128 Z"
       transform="scale(0.046875)"
       id="path863"
       inkscape:connector-curvature="0" />
    <path
       style="fill:url(#radialGradient978);fill-opacity:1;stroke-width:21.33333397"
       d="M 64,42.666016 C 52.217926,42.666016 42.666016,52.217926 42.666016,64 V 362.66602 L 128,277.33398 h 213.33398 c 11.78208,0 21.33204,-9.5519 21.33204,-21.33398 V 64 c 0,-11.782074 -9.54996,-21.333984 -21.33204,-21.333984 z m 1.8125,49.685546 H 91.132812 L 103.79102,124 116.44922,92.351562 h 25.3164 l -25.3164,63.294918 25.31445,63.29493 H 116.44531 L 103.78906,187.29297 91.130859,218.94141 H 65.8125 L 91.130859,155.64648 Z M 203.79102,124 c 19.683,0 35.625,15.942 35.625,35.625 0,19.683 -15.942,35.625 -35.625,35.625 -19.68299,0 -35.625,-15.942 -35.625,-35.625 0,-19.683 15.94201,-35.625 35.625,-35.625 z m 106.91796,0 c 19.68299,0 35.625,15.942 35.625,35.625 0,19.683 -15.94201,35.625 -35.625,35.625 -19.683,0 -35.625,-15.942 -35.625,-35.625 0,-19.683 15.942,-35.625 35.625,-35.625 z m 94.625,4 V 320 H 128 v 42.66602 C 128,374.4481 137.55191,384 149.33398,384 H 384 l 85.33398,85.33398 v -320 C 469.33398,137.55191 459.78208,128 448,128 Z"
       transform="scale(0.046875)"
       id="path863-3"
       inkscape:connector-curvature="0" />
    <path
       style="fill:url(#radialGradient978-5);fill-opacity:1;stroke-width:21.33333397"
       d="M 64,42.666016 C 52.217926,42.666016 42.666016,52.217926 42.666016,64 V 362.66602 L 128,277.33398 h 213.33398 c 11.78208,0 21.33204,-9.5519 21.33204,-21.33398 V 64 c 0,-11.782074 -9.54996,-21.333984 -21.33204,-21.333984 z m 1.8125,49.6875 H 91.132812 L 103.79102,124 116.44922,92.353516 h 25.3164 l -25.3164,63.292964 25.31445,63.29493 H 116.44531 L 103.78906,187.29492 91.130859,218.94141 H 65.8125 L 91.130859,155.64648 Z M 203.79102,124 c 19.683,0 35.625,15.942 35.625,35.625 0,19.683 -15.942,35.625 -35.625,35.625 -19.68299,0 -35.625,-15.942 -35.625,-35.625 0,-19.683 15.94201,-35.625 35.625,-35.625 z m 106.91796,0 c 19.68299,0 35.625,15.942 35.625,35.625 0,19.683 -15.94201,35.625 -35.625,35.625 -19.683,0 -35.625,-15.942 -35.625,-35.625 0,-19.683 15.942,-35.625 35.625,-35.625 z m 94.625,4 V 320 H 128 v 42.66602 C 128,374.4481 137.55191,384 149.33398,384 H 384 l 85.33398,85.33398 v -320 C 469.33398,137.55191 459.78208,128 448,128 Z"
       transform="scale(0.046875)"
       id="path863-3-6"
       inkscape:connector-curvature="0" />
    <path
       style="fill:url(#radialGradient978-5-2);fill-opacity:1;stroke-width:21.33333397"
       d="M 64,42.666016 C 52.217926,42.666016 42.666016,52.217926 42.666016,64 V 362.66602 L 128,277.33398 h 213.33398 c 11.78208,0 21.33204,-9.5519 21.33204,-21.33398 V 64 c 0,-11.782074 -9.54996,-21.333984 -21.33204,-21.333984 z m 1.8125,49.685546 H 91.132812 L 103.79102,124 116.44922,92.351562 h 25.3164 l -25.3164,63.294918 25.31445,63.29493 H 116.44531 L 103.78906,187.29297 91.130859,218.94141 H 65.8125 L 91.130859,155.64648 Z M 203.79102,124 c 19.683,0 35.625,15.942 35.625,35.625 0,19.683 -15.942,35.625 -35.625,35.625 -19.68298,0 -35.625,-15.942 -35.625,-35.625 0,-19.683 15.94202,-35.625 35.625,-35.625 z m 106.91796,0 c 19.68299,0 35.625,15.942 35.625,35.625 0,19.683 -15.94201,35.625 -35.625,35.625 -19.683,0 -35.625,-15.942 -35.625,-35.625 0,-19.683 15.942,-35.625 35.625,-35.625 z m 94.625,4 V 320 H 128 v 42.66602 C 128,374.4481 137.55191,384 149.33398,384 H 384 l 85.33398,85.33398 v -320 C 469.33398,137.55191 459.78208,128 448,128 Z"
       transform="scale(0.046875)"
       id="path863-3-6-2"
       inkscape:connector-curvature="0" />
    <g
       clip-path="none"
       id="g3362">
      <g
         id="g3360"
         inkscape:label="Clip">
        <path
           style="fill:url(#radialGradient3519);fill-opacity:1;stroke-width:21.33333397"
           d="M 64,42.666016 C 52.217926,42.666016 42.666016,52.217926 42.666016,64 V 362.66602 L 128,277.33398 h 213.33398 c 11.78208,0 21.33204,-9.5519 21.33204,-21.33398 V 64 c 0,-11.782074 -9.54996,-21.333984 -21.33204,-21.333984 z m 1.814453,49.6875 H 91.134766 L 103.79102,124 116.44922,92.353516 h 25.31836 l -25.31836,63.292964 25.31445,63.29493 h -25.3164 L 103.78906,187.29492 91.130859,218.94141 H 65.814453 L 91.130859,155.64648 Z M 203.79102,124 c 19.683,0 35.625,15.942 35.625,35.625 0,19.683 -15.942,35.625 -35.625,35.625 -19.68299,0 -35.625,-15.942 -35.625,-35.625 0,-19.683 15.94201,-35.625 35.625,-35.625 z m 106.91796,0 c 19.68299,0 35.625,15.942 35.625,35.625 0,19.683 -15.94201,35.625 -35.625,35.625 -19.683,0 -35.625,-15.942 -35.625,-35.625 0,-19.683 15.942,-35.625 35.625,-35.625 z m 94.625,4 V 320 H 128 v 42.66602 C 128,374.4481 137.55191,384 149.33398,384 H 384 l 85.33398,85.33398 v -320 C 469.33398,137.55191 459.78208,128 448,128 Z"
           transform="scale(0.046875)"
           id="path863-3-6-2-3"
           inkscape:connector-curvature="0" />
      </g>
    </g>
  </g>
</svg>
