<?xml version="1.0" encoding="UTF-8" standalone="no"?>
<svg
   xmlns:dc="http://purl.org/dc/elements/1.1/"
   xmlns:cc="http://creativecommons.org/ns#"
   xmlns:rdf="http://www.w3.org/1999/02/22-rdf-syntax-ns#"
   xmlns:svg="http://www.w3.org/2000/svg"
   xmlns="http://www.w3.org/2000/svg"
   xmlns:xlink="http://www.w3.org/1999/xlink"
   id="svg865"
   viewBox="0 0 24 24"
   height="512"
   width="512"
   version="1.1">
  <metadata
     id="metadata871">
    <rdf:RDF>
      <cc:Work
         rdf:about="">
        <dc:format>image/svg+xml</dc:format>
        <dc:type
           rdf:resource="http://purl.org/dc/dcmitype/StillImage" />
        <dc:title></dc:title>
      </cc:Work>
    </rdf:RDF>
  </metadata>
  <defs
     id="defs869">
    <linearGradient
       id="linearGradient2552">
      <stop
         style="stop-color:#4caf50;stop-opacity:1"
         offset="0"
         id="stop2548" />
      <stop
         style="stop-color:#ffffff;stop-opacity:0"
         offset="1"
         id="stop2550" />
    </linearGradient>
    <linearGradient
       id="linearGradient2522">
      <stop
         id="stop2518"
         offset="0"
         style="stop-color:#1e88e5;stop-opacity:1" />
      <stop
         id="stop2520"
         offset="1"
         style="stop-color:#ffffff;stop-opacity:0" />
    </linearGradient>
    <linearGradient
       id="linearGradient2492">
      <stop
         style="stop-color:#9575cd;stop-opacity:1"
         offset="0"
         id="stop2488" />
      <stop
         style="stop-color:#ffffff;stop-opacity:0"
         offset="1"
         id="stop2490" />
    </linearGradient>
    <linearGradient
       id="linearGradient976">
      <stop
         id="stop972"
         offset="0"
         style="stop-color:#03a9f4;stop-opacity:1" />
      <stop
         id="stop974"
         offset="1"
         style="stop-color:#ffffff;stop-opacity:0" />
    </linearGradient>
    <radialGradient
       gradientTransform="matrix(0.89176478,-0.89176478,0.70709549,0.70711807,-14.338145,8.847878)"
       gradientUnits="userSpaceOnUse"
       r="10"
       fy="20.752941"
       fx="3.1058824"
       cy="20.752941"
       cx="3.1058824"
       id="radialGradient978"
       xlink:href="#linearGradient976" />
    <radialGradient
       gradientTransform="matrix(-0.626587,-1.0852805,0.86603334,-0.49998626,-2.3898461,44.545944)"
       gradientUnits="userSpaceOnUse"
       r="10"
       fy="33.503387"
       fx="7.268929"
       cy="33.503387"
       cx="7.268929"
       id="radialGradient978-5"
       xlink:href="#linearGradient2492" />
    <radialGradient
       gradientTransform="matrix(1.0461746,0.28032164,-0.25883229,0.96592228,-10.415615,-25.978709)"
       gradientUnits="userSpaceOnUse"
       r="10"
       fy="25.063934"
       fx="18.90082"
       cy="25.063934"
       cx="18.90082"
       id="radialGradient978-5-2"
       xlink:href="#linearGradient2522" />
    <radialGradient
       gradientTransform="matrix(1.2162905e-4,2.106204,-2.1670589,-6.7597437e-8,61.124842,-58.481775)"
       gradientUnits="userSpaceOnUse"
       r="10"
       fy="21.4979"
       fx="29.174042"
       cy="21.4979"
       cx="29.174042"
       id="radialGradient978-5-2-7"
       xlink:href="#linearGradient2552" />
  </defs>
  <path
     style="fill:#4dd0e1;fill-opacity:1"
     id="path863"
     d="M 3 2 A 1 1 0 0 0 2 3 L 2 17 L 6 13 L 16 13 A 1 1 0 0 0 17 12 L 17 3 A 1 1 0 0 0 16 2 L 3 2 z M 4.5410156 5.8125 C 5.463656 5.8125 6.2109375 6.5597815 6.2109375 7.4824219 C 6.2109375 8.4050624 5.463656 9.1523438 4.5410156 9.1523438 C 3.6183751 9.1523438 2.8710938 8.4050623 2.8710938 7.4824219 C 2.8710938 6.5597815 3.6183751 5.8125001 4.5410156 5.8125 z M 9.5527344 5.8125 C 10.475375 5.8125 11.222656 6.5597815 11.222656 7.4824219 C 11.222656 8.4050623 10.475375 9.1523437 9.5527344 9.1523438 C 8.6300937 9.1523439 7.8828125 8.4050624 7.8828125 7.4824219 C 7.8828125 6.5597814 8.6300937 5.8124999 9.5527344 5.8125 z M 14.564453 5.8125 C 15.487093 5.8125 16.234375 6.5597815 16.234375 7.4824219 C 16.234375 8.4050623 15.487093 9.1523438 14.564453 9.1523438 C 13.641812 9.1523438 12.894531 8.4050623 12.894531 7.4824219 C 12.894531 6.5597815 13.641812 5.8125 14.564453 5.8125 z M 19 6 L 19 15 L 6 15 L 6 17 A 1 1 0 0 0 7 18 L 18 18 L 22 22 L 22 7 A 1 1 0 0 0 21 6 L 19 6 z " />
  <path
     style="fill-opacity:1;fill:url(#radialGradient978)"
     id="path863-3"
     d="M 3,2 A 1,1 0 0 0 2,3 v 14 l 4,-4 h 10 a 1,1 0 0 0 1,-1 V 3 A 1,1 0 0 0 16,2 Z m 1.5410156,3.8125 c 0.9226404,0 1.6699219,0.7472815 1.6699219,1.6699219 0,0.9226405 -0.7472815,1.6699219 -1.6699219,1.6699219 -0.9226405,0 -1.6699218,-0.7472815 -1.6699218,-1.6699219 0,-0.9226404 0.7472813,-1.6699218 1.6699218,-1.6699219 z m 5.0117184,0 c 0.922641,0 1.669922,0.7472815 1.669922,1.6699219 0,0.9226404 -0.747281,1.6699218 -1.669922,1.6699219 -0.92264,10e-8 -1.6699215,-0.7472814 -1.6699215,-1.6699219 0,-0.9226405 0.7472815,-1.669922 1.6699215,-1.6699219 z m 5.011719,0 c 0.92264,0 1.669922,0.7472815 1.669922,1.6699219 0,0.9226404 -0.747282,1.6699219 -1.669922,1.6699219 -0.922641,0 -1.669922,-0.7472815 -1.669922,-1.6699219 0,-0.9226404 0.747281,-1.6699219 1.669922,-1.6699219 z M 19,6 v 9 H 6 v 2 a 1,1 0 0 0 1,1 h 11 l 4,4 V 7 A 1,1 0 0 0 21,6 Z" />
  <path
     style="fill:url(#radialGradient978-5);fill-opacity:1"
     id="path863-3-6"
     d="M 3,2 A 1,1 0 0 0 2,3 v 14 l 4,-4 h 10 a 1,1 0 0 0 1,-1 V 3 A 1,1 0 0 0 16,2 Z m 1.5410156,3.8125 c 0.9226404,0 1.6699219,0.7472815 1.6699219,1.6699219 0,0.9226405 -0.7472815,1.6699219 -1.6699219,1.6699219 -0.9226405,0 -1.6699218,-0.7472815 -1.6699218,-1.6699219 0,-0.9226404 0.7472813,-1.6699218 1.6699218,-1.6699219 z m 5.0117184,0 c 0.922641,0 1.669922,0.7472815 1.669922,1.6699219 0,0.9226404 -0.747281,1.6699218 -1.669922,1.6699219 -0.92264,10e-8 -1.6699215,-0.7472814 -1.6699215,-1.6699219 0,-0.9226405 0.7472815,-1.669922 1.6699215,-1.6699219 z m 5.011719,0 c 0.92264,0 1.669922,0.7472815 1.669922,1.6699219 0,0.9226404 -0.747282,1.6699219 -1.669922,1.6699219 -0.922641,0 -1.669922,-0.7472815 -1.669922,-1.6699219 0,-0.9226404 0.747281,-1.6699219 1.669922,-1.6699219 z M 19,6 v 9 H 6 v 2 a 1,1 0 0 0 1,1 h 11 l 4,4 V 7 A 1,1 0 0 0 21,6 Z" />
  <path
     style="fill:url(#radialGradient978-5-2);fill-opacity:1"
     id="path863-3-6-2"
     d="m 3.0000004,2 a 1,1 0 0 0 -1,1 v 14 l 4,-4 H 16 a 1,1 0 0 0 1,-1 V 3 A 1,1 0 0 0 16,2 Z M 4.541016,5.8125 c 0.9226404,0 1.6699219,0.7472815 1.6699219,1.6699219 0,0.9226405 -0.7472815,1.6699219 -1.6699219,1.6699219 -0.9226405,0 -1.6699218,-0.7472815 -1.6699218,-1.6699219 0,-0.9226404 0.7472813,-1.6699218 1.6699218,-1.6699219 z m 5.011718,0 c 0.922641,0 1.669922,0.7472815 1.669922,1.6699219 0,0.9226404 -0.747281,1.6699218 -1.669922,1.6699219 -0.9226396,10e-8 -1.6699211,-0.7472814 -1.6699211,-1.6699219 0,-0.9226405 0.7472815,-1.669922 1.6699211,-1.6699219 z m 5.011719,0 c 0.92264,0 1.669922,0.7472815 1.669922,1.6699219 0,0.9226404 -0.747282,1.6699219 -1.669922,1.6699219 -0.922641,0 -1.669922,-0.7472815 -1.669922,-1.6699219 0,-0.9226404 0.747281,-1.6699219 1.669922,-1.6699219 z M 19,6 v 9 H 6.0000004 v 2 a 1,1 0 0 0 1,1 H 18 l 4,4 V 7 A 1,1 0 0 0 21,6 Z" />
  <path
     style="fill:url(#radialGradient978-5-2-7);fill-opacity:1"
     id="path863-3-6-2-3"
     d="m 3.0000002,2 a 1,1 0 0 0 -1,1 v 14 l 4,-4 H 16 a 1,1 0 0 0 1,-1 V 3 A 1,1 0 0 0 16,2 Z m 1.5410156,3.8125 c 0.9226404,0 1.6699219,0.7472815 1.6699219,1.6699219 0,0.9226405 -0.7472815,1.6699219 -1.6699219,1.6699219 -0.9226405,0 -1.6699218,-0.7472815 -1.6699218,-1.6699219 0,-0.9226404 0.7472813,-1.6699218 1.6699218,-1.6699219 z m 5.0117182,0 c 0.922641,0 1.669922,0.7472815 1.669922,1.6699219 0,0.9226404 -0.747281,1.6699218 -1.669922,1.6699219 -0.92264,10e-8 -1.6699213,-0.7472814 -1.6699213,-1.6699219 0,-0.9226405 0.7472813,-1.669922 1.6699213,-1.6699219 z m 5.011719,0 c 0.92264,0 1.669922,0.7472815 1.669922,1.6699219 0,0.9226404 -0.747282,1.6699219 -1.669922,1.6699219 -0.922641,0 -1.669922,-0.7472815 -1.669922,-1.6699219 0,-0.9226404 0.747281,-1.6699219 1.669922,-1.6699219 z M 19,6 v 9 H 6.0000002 v 2 a 1,1 0 0 0 1,1 H 18 l 4,4 V 7 A 1,1 0 0 0 21,6 Z" />
</svg>
