<?xml version="1.0" encoding="UTF-8" standalone="no"?>
<svg
   xmlns:dc="http://purl.org/dc/elements/1.1/"
   xmlns:cc="http://creativecommons.org/ns#"
   xmlns:rdf="http://www.w3.org/1999/02/22-rdf-syntax-ns#"
   xmlns:svg="http://www.w3.org/2000/svg"
   xmlns="http://www.w3.org/2000/svg"
   xmlns:xlink="http://www.w3.org/1999/xlink"
   id="svg865"
   viewBox="0 0 24 24"
   height="512"
   width="512"
   version="1.1">
  <metadata
     id="metadata871">
    <rdf:RDF>
      <cc:Work
         rdf:about="">
        <dc:format>image/svg+xml</dc:format>
        <dc:type
           rdf:resource="http://purl.org/dc/dcmitype/StillImage" />
        <dc:title></dc:title>
      </cc:Work>
    </rdf:RDF>
  </metadata>
  <defs
     id="defs869">
    <linearGradient
       id="linearGradient2522">
      <stop
         id="stop2518"
         offset="0"
         style="stop-color:#3f51b5;stop-opacity:1" />
      <stop
         id="stop2520"
         offset="1"
         style="stop-color:#3f51b5;stop-opacity:0" />
    </linearGradient>
    <linearGradient
       id="linearGradient2492">
      <stop
         style="stop-color:#1565c0;stop-opacity:1"
         offset="0"
         id="stop2488" />
      <stop
         style="stop-color:#1565c0;stop-opacity:0"
         offset="1"
         id="stop2490" />
    </linearGradient>
    <linearGradient
       id="linearGradient976">
      <stop
         id="stop972"
         offset="0"
         style="stop-color:#4d2c91;stop-opacity:1" />
      <stop
         id="stop974"
         offset="1"
         style="stop-color:#4d2c91;stop-opacity:0" />
    </linearGradient>
    <radialGradient
       gradientTransform="matrix(0.90294125,-0.90294123,1.219156,1.2191991,-22.758392,3.7462499)"
       gradientUnits="userSpaceOnUse"
       r="10"
       fy="18.4902"
       fx="5.8499165"
       cy="18.4902"
       cx="5.8499165"
       id="radialGradient978"
       xlink:href="#linearGradient976" />
    <radialGradient
       gradientTransform="matrix(-0.91792734,-1.5898205,1.2074262,-0.69710771,-5.2855932,61.238)"
       gradientUnits="userSpaceOnUse"
       r="10"
       fy="33.383389"
       fx="12.96114"
       cy="33.383389"
       cx="12.96114"
       id="radialGradient978-5"
       xlink:href="#linearGradient2492" />
    <radialGradient
       gradientTransform="matrix(1.2681225,0.3397736,-0.33644233,1.25562,-11.822753,-33.356011)"
       gradientUnits="userSpaceOnUse"
       r="10"
       fy="25.063934"
       fx="18.90082"
       cy="25.063934"
       cx="18.90082"
       id="radialGradient978-5-2"
       xlink:href="#linearGradient2522" />
  </defs>
  <path
     style="fill:#673ab7;fill-opacity:1;stroke-width:1.25"
     id="path863"
     d="m 3.8749999,2.6249999 c -0.6903559,0 -1.25,0.5596442 -1.25,1.25 V 21.375 l 5,-5 H 20.125 c 0.690356,0 1.25,-0.559644 1.25,-1.25 V 3.8749999 c 0,-0.6903558 -0.559644,-1.25 -1.25,-1.25 z m 1.9262695,4.765625 c 1.1533005,0 2.0874024,0.9341019 2.0874024,2.0874024 0,1.1533007 -0.9341019,2.0874027 -2.0874024,2.0874027 -1.1533006,0 -2.0874023,-0.934102 -2.0874023,-2.0874027 0,-1.1533005 0.9341017,-2.0874023 2.0874023,-2.0874024 z m 6.2646486,0 c 1.153301,0 2.087402,0.9341019 2.087402,2.0874024 0,1.1533007 -0.934101,2.0874017 -2.087402,2.0874027 -1.153301,0 -2.0874029,-0.934102 -2.0874029,-2.0874027 0,-1.1533007 0.9341019,-2.0874025 2.0874029,-2.0874024 z m 6.264648,0 c 1.1533,0 2.087403,0.9341019 2.087403,2.0874024 0,1.1533007 -0.934103,2.0874027 -2.087403,2.0874027 -1.153301,0 -2.087402,-0.934102 -2.087402,-2.0874027 0,-1.1533005 0.934101,-2.0874024 2.087402,-2.0874024 z" />
  <path
     style="fill:url(#radialGradient978);fill-opacity:1;stroke-width:1.25"
     id="path863-3"
     d="m 3.8749999,2.6249999 c -0.6903559,0 -1.25,0.5596442 -1.25,1.25 V 21.375 l 5,-5 H 20.125 c 0.690356,0 1.25,-0.559644 1.25,-1.25 V 3.8749999 c 0,-0.6903558 -0.559644,-1.25 -1.25,-1.25 z m 1.9262695,4.765625 c 1.1533005,0 2.0874024,0.9341019 2.0874024,2.0874024 0,1.1533007 -0.9341019,2.0874027 -2.0874024,2.0874027 -1.1533006,0 -2.0874023,-0.934102 -2.0874023,-2.0874027 0,-1.1533005 0.9341017,-2.0874023 2.0874023,-2.0874024 z m 6.2646476,0 c 1.153302,0 2.087403,0.9341019 2.087403,2.0874024 0,1.1533007 -0.934101,2.0874017 -2.087403,2.0874027 -1.1533,0 -2.0874019,-0.934102 -2.0874019,-2.0874027 0,-1.1533007 0.9341019,-2.0874025 2.0874019,-2.0874024 z m 6.264649,0 c 1.1533,0 2.087403,0.9341019 2.087403,2.0874024 0,1.1533007 -0.934103,2.0874027 -2.087403,2.0874027 -1.153301,0 -2.087402,-0.934102 -2.087402,-2.0874027 0,-1.1533005 0.934101,-2.0874024 2.087402,-2.0874024 z" />
  <path
     style="fill:url(#radialGradient978-5);fill-opacity:1;stroke-width:1.25"
     id="path863-3-6"
     d="m 3.8749999,2.6249999 c -0.6903559,0 -1.25,0.5596442 -1.25,1.25 V 21.375 l 5,-5 H 20.125 c 0.690356,0 1.25,-0.559644 1.25,-1.25 V 3.8749999 c 0,-0.6903558 -0.559644,-1.25 -1.25,-1.25 z m 1.9262695,4.765625 c 1.1533005,0 2.0874024,0.9341019 2.0874024,2.0874024 0,1.1533007 -0.9341019,2.0874027 -2.0874024,2.0874027 -1.1533006,0 -2.0874023,-0.934102 -2.0874023,-2.0874027 0,-1.1533005 0.9341017,-2.0874023 2.0874023,-2.0874024 z m 6.2646476,0 c 1.153302,0 2.087403,0.9341019 2.087403,2.0874024 0,1.1533007 -0.934101,2.0874017 -2.087403,2.0874027 -1.1533,0 -2.0874019,-0.934102 -2.0874019,-2.0874027 0,-1.1533007 0.9341019,-2.0874025 2.0874019,-2.0874024 z m 6.264649,0 c 1.1533,0 2.087403,0.9341019 2.087403,2.0874024 0,1.1533007 -0.934103,2.0874027 -2.087403,2.0874027 -1.153301,0 -2.087402,-0.934102 -2.087402,-2.0874027 0,-1.1533005 0.934101,-2.0874024 2.087402,-2.0874024 z" />
  <path
     style="fill:url(#radialGradient978-5-2);fill-opacity:1;stroke-width:1.25"
     id="path863-3-6-2"
     d="m 3.8750001,2.6249999 c -0.6903559,0 -1.25,0.5596442 -1.25,1.25 V 21.375 l 5,-5 H 20.125 c 0.690356,0 1.25,-0.559644 1.25,-1.25 V 3.8749999 c 0,-0.6903558 -0.559644,-1.25 -1.25,-1.25 z m 1.9262696,4.765625 c 1.1533004,0 2.0874023,0.9341019 2.0874023,2.0874024 0,1.1533007 -0.9341018,2.0874027 -2.0874023,2.0874027 -1.1533007,0 -2.0874023,-0.934102 -2.0874023,-2.0874027 0,-1.1533005 0.9341016,-2.0874023 2.0874023,-2.0874024 z m 6.2646473,0 c 1.153302,0 2.087403,0.9341019 2.087403,2.0874024 0,1.1533007 -0.934101,2.0874017 -2.087403,2.0874027 -1.153299,0 -2.0874011,-0.934102 -2.0874011,-2.0874027 0,-1.1533007 0.9341021,-2.0874025 2.0874011,-2.0874024 z m 6.264649,0 c 1.1533,0 2.087403,0.9341019 2.087403,2.0874024 0,1.1533007 -0.934103,2.0874027 -2.087403,2.0874027 -1.153301,0 -2.087402,-0.934102 -2.087402,-2.0874027 0,-1.1533005 0.934101,-2.0874024 2.087402,-2.0874024 z" />
  <path
     style="fill:#ffffff;fill-opacity:0;stroke-width:1.25"
     id="path863-3-6-2-3"
     d="m 3.875,2.6249999 c -0.6903559,0 -1.25,0.5596442 -1.25,1.25 V 21.375 l 5,-5 h 12.5 c 0.690356,0 1.25,-0.559644 1.25,-1.25 V 3.8749999 c 0,-0.6903558 -0.559644,-1.25 -1.25,-1.25 z m 1.9262695,4.765625 c 1.1533005,0 2.0874024,0.9341019 2.0874024,2.0874024 0,1.1533007 -0.9341019,2.0874027 -2.0874024,2.0874027 -1.1533006,0 -2.0874022,-0.934102 -2.0874022,-2.0874027 0,-1.1533005 0.9341016,-2.0874023 2.0874022,-2.0874024 z m 6.2646475,0 c 1.153302,0 2.087403,0.9341019 2.087403,2.0874024 0,1.1533007 -0.934101,2.0874017 -2.087403,2.0874027 -1.1533,0 -2.087401,-0.934102 -2.087401,-2.0874027 0,-1.1533007 0.934101,-2.0874025 2.087401,-2.0874024 z m 6.264649,0 c 1.1533,0 2.087403,0.9341019 2.087403,2.0874024 0,1.1533007 -0.934103,2.0874027 -2.087403,2.0874027 -1.153301,0 -2.087402,-0.934102 -2.087402,-2.0874027 0,-1.1533005 0.934101,-2.0874024 2.087402,-2.0874024 z" />
</svg>
